<svg xmlns="http://www.w3.org/2000/svg" xmlns:xlink="http://www.w3.org/1999/xlink" width="295" zoomAndPan="magnify" viewBox="0 0 221.25 183.000001" height="244" preserveAspectRatio="xMidYMid meet" version="1.0"><defs><clipPath id="e57c2e5cc7"><path d="M 19 75.191406 L 109.15625 75.191406 L 109.15625 99 L 19 99 Z M 19 75.191406 " clip-rule="nonzero"/></clipPath><clipPath id="abe877a338"><path d="M 43 102 L 109.15625 102 L 109.15625 123 L 43 123 Z M 43 102 " clip-rule="nonzero"/></clipPath><clipPath id="7b6c3e4eab"><path d="M 0.226562 117 L 109.15625 117 L 109.15625 141 L 0.226562 141 Z M 0.226562 117 " clip-rule="nonzero"/></clipPath><clipPath id="b072edfca7"><path d="M 24 144 L 109.15625 144 L 109.15625 168.066406 L 24 168.066406 Z M 24 144 " clip-rule="nonzero"/></clipPath><clipPath id="5f695ff891"><path d="M 30.347656 0 L 219.40625 0 L 219.40625 181.164062 L 30.347656 181.164062 Z M 30.347656 0 " clip-rule="nonzero"/></clipPath></defs><g clip-path="url(#e57c2e5cc7)"><path fill="#d33333" d="M 29.960938 95.585938 C 35.085938 95.585938 39.300781 91.769531 39.984375 86.8125 L 57.300781 86.8125 L 64.707031 97.523438 C 64.992188 97.921875 65.390625 98.089844 65.84375 98.089844 L 107.824219 98.089844 C 108.5625 98.089844 109.191406 97.464844 109.191406 96.722656 C 109.191406 95.984375 108.5625 95.355469 107.824219 95.355469 L 66.527344 95.355469 L 59.125 84.648438 C 58.839844 84.25 58.441406 84.078125 57.984375 84.078125 L 39.929688 84.078125 C 39.246094 79.125 35.03125 75.308594 29.902344 75.308594 C 24.320312 75.308594 19.765625 79.863281 19.765625 85.445312 C 19.765625 91.027344 24.378906 95.585938 29.960938 95.585938 Z M 29.960938 78.097656 C 34.003906 78.097656 37.308594 81.402344 37.308594 85.445312 C 37.308594 89.492188 34.003906 92.792969 29.960938 92.792969 C 25.917969 92.792969 22.613281 89.492188 22.613281 85.445312 C 22.613281 81.402344 25.859375 78.097656 29.960938 78.097656 Z M 29.960938 78.097656 " fill-opacity="1" fill-rule="nonzero"/></g><g clip-path="url(#abe877a338)"><path fill="#d33333" d="M 107.824219 111.191406 L 64.136719 111.191406 C 63.453125 106.238281 59.238281 102.421875 54.113281 102.421875 C 48.53125 102.421875 43.972656 106.976562 43.972656 112.558594 C 43.972656 118.140625 48.53125 122.699219 54.113281 122.699219 C 59.238281 122.699219 63.453125 118.882812 64.136719 113.925781 L 107.824219 113.925781 C 108.5625 113.925781 109.191406 113.300781 109.191406 112.558594 C 109.191406 111.820312 108.5625 111.191406 107.824219 111.191406 Z M 54.113281 119.964844 C 50.066406 119.964844 46.765625 116.660156 46.765625 112.617188 C 46.765625 108.570312 50.066406 105.210938 54.113281 105.210938 C 58.15625 105.210938 61.460938 108.515625 61.460938 112.558594 C 61.460938 116.660156 58.15625 119.964844 54.113281 119.964844 Z M 54.113281 119.964844 " fill-opacity="1" fill-rule="nonzero"/></g><g clip-path="url(#7b6c3e4eab)"><path fill="#d33333" d="M 107.824219 128.734375 L 69.71875 128.734375 C 69.261719 128.734375 68.808594 128.964844 68.523438 129.363281 L 63.167969 137.90625 L 39.699219 137.90625 L 33.890625 127.082031 C 33.664062 126.628906 33.207031 126.34375 32.695312 126.34375 L 20.390625 126.34375 C 19.707031 121.386719 15.492188 117.570312 10.367188 117.570312 C 4.785156 117.570312 0.226562 122.128906 0.226562 127.710938 C 0.226562 133.292969 4.785156 137.847656 10.367188 137.847656 C 15.492188 137.847656 19.707031 134.03125 20.390625 129.078125 L 31.839844 129.078125 L 37.648438 139.898438 C 37.878906 140.355469 38.332031 140.640625 38.847656 140.640625 L 63.910156 140.640625 C 64.363281 140.640625 64.820312 140.410156 65.105469 140.011719 L 70.457031 131.46875 L 107.765625 131.46875 C 108.507812 131.46875 109.132812 130.84375 109.132812 130.101562 C 109.191406 129.363281 108.5625 128.734375 107.824219 128.734375 Z M 10.367188 135.171875 C 6.324219 135.171875 3.019531 131.867188 3.019531 127.824219 C 3.019531 123.78125 6.324219 120.476562 10.367188 120.476562 C 14.410156 120.476562 17.714844 123.78125 17.714844 127.824219 C 17.773438 131.867188 14.46875 135.171875 10.367188 135.171875 Z M 10.367188 135.171875 " fill-opacity="1" fill-rule="nonzero"/></g><g clip-path="url(#b072edfca7)"><path fill="#d33333" d="M 107.824219 144.855469 L 85.835938 144.855469 C 85.324219 144.855469 84.871094 145.140625 84.640625 145.539062 L 78.148438 156.589844 L 44.996094 156.589844 C 44.316406 151.632812 40.097656 147.816406 34.972656 147.816406 C 29.390625 147.816406 24.835938 152.375 24.835938 157.957031 C 24.835938 163.539062 29.390625 168.09375 34.972656 168.09375 C 40.097656 168.09375 44.316406 164.277344 44.996094 159.320312 L 78.945312 159.320312 C 79.457031 159.320312 79.914062 159.039062 80.140625 158.640625 L 86.636719 147.589844 L 107.824219 147.589844 C 108.5625 147.589844 109.191406 146.960938 109.191406 146.222656 C 109.191406 145.480469 108.5625 144.855469 107.824219 144.855469 Z M 34.972656 165.359375 C 30.929688 165.359375 27.625 162.054688 27.625 158.011719 C 27.625 153.96875 30.929688 150.664062 34.972656 150.664062 C 39.015625 150.664062 42.320312 153.96875 42.320312 158.011719 C 42.378906 162.054688 39.074219 165.359375 34.972656 165.359375 Z M 34.972656 165.359375 " fill-opacity="1" fill-rule="nonzero"/></g><g clip-path="url(#5f695ff891)"><path fill="#000000" d="M 212.457031 5.941406 C 192.164062 -11.179688 123.9375 27.425781 144.027344 63.425781 C 146.007812 67.003906 145.625 71.382812 142.835938 74.167969 C 138.054688 79.339844 132.882812 84.507812 127.109375 90.28125 L 117.175781 80.328125 C 114.589844 77.746094 113.785156 73.765625 115.175781 70.578125 C 120.546875 57.855469 117.761719 42.328125 107.019531 31.992188 L 75.195312 1.15625 C 73.601562 -0.234375 71.21875 -0.4375 69.625 0.957031 C 67.84375 2.550781 67.644531 5.335938 69.238281 7.132812 L 99.265625 38.351562 C 100.859375 40.148438 100.859375 42.933594 98.878906 44.527344 L 98.476562 44.929688 C 96.679688 46.324219 94.296875 46.125 92.703125 44.527344 L 62.859375 11.898438 C 61.28125 10.304688 58.882812 10.105469 57.101562 11.496094 L 56.699219 11.699219 C 54.90625 13.292969 54.703125 15.878906 56.296875 17.671875 L 84.746094 50.6875 C 86.339844 52.484375 86.140625 55.070312 84.34375 56.664062 L 84.160156 56.863281 C 82.363281 58.441406 79.777344 58.058594 78.183594 56.261719 L 50.539062 22.441406 C 49.148438 20.660156 46.359375 20.460938 44.566406 21.851562 L 44.164062 22.054688 C 42.382812 23.449219 42.183594 26.03125 43.574219 27.8125 L 70.632812 62.824219 C 72.023438 64.621094 71.621094 67.203125 70.027344 68.597656 L 69.625 69 C 67.84375 70.578125 65.058594 70.191406 63.464844 68.195312 L 38.003906 33.382812 C 36.609375 31.402344 33.824219 31 31.84375 32.59375 C 30.25 33.988281 29.84375 36.371094 31.039062 38.167969 L 56.5 75.746094 C 64.65625 87.882812 79.175781 92.867188 92.5 89.679688 C 96.09375 88.890625 99.871094 90.28125 102.050781 93.253906 C 105.039062 97.433594 108.027344 101.613281 111.199219 106.195312 C 102.855469 114.738281 93.691406 124.488281 84.160156 135.816406 C 57.691406 167.457031 62.675781 175.410156 67.039062 178.988281 C 71.421875 182.5625 80.179688 186.355469 106.632812 154.71875 C 114.386719 145.367188 121.152344 136.625 127.109375 128.464844 C 133.085938 136.625 139.648438 145.167969 147.402344 154.332031 C 173.871094 186.152344 182.617188 182.578125 186.996094 178.785156 C 191.359375 175.210938 196.53125 167.253906 169.875 135.632812 C 160.328125 124.289062 151.378906 114.535156 143.023438 106.195312 C 148.007812 99.027344 152.570312 92.464844 157.152344 86.488281 C 159.539062 83.316406 163.714844 82.125 167.695312 83.519531 C 206.484375 96.644531 232.546875 23.042969 212.457031 5.941406 " fill-opacity="1" fill-rule="nonzero"/></g></svg>