<svg xmlns="http://www.w3.org/2000/svg" xmlns:xlink="http://www.w3.org/1999/xlink" width="526" zoomAndPan="magnify" viewBox="0 0 394.5 278.250005" height="371" preserveAspectRatio="xMidYMid meet" version="1.0"><defs><g/><clipPath id="53bdbb728c"><path d="M 106 75.398438 L 196.042969 75.398438 L 196.042969 99 L 106 99 Z M 106 75.398438 " clip-rule="nonzero"/></clipPath><clipPath id="adc683c3f2"><path d="M 130 102 L 196.042969 102 L 196.042969 124 L 130 124 Z M 130 102 " clip-rule="nonzero"/></clipPath><clipPath id="6f075d3f24"><path d="M 86.816406 117 L 196.042969 117 L 196.042969 142 L 86.816406 142 Z M 86.816406 117 " clip-rule="nonzero"/></clipPath><clipPath id="fd45350b7d"><path d="M 111 145 L 196.042969 145 L 196.042969 168.53125 L 111 168.53125 Z M 111 145 " clip-rule="nonzero"/></clipPath><clipPath id="9411def524"><path d="M 117.019531 0 L 306.597656 0 L 306.597656 181.664062 L 117.019531 181.664062 Z M 117.019531 0 " clip-rule="nonzero"/></clipPath><clipPath id="d72176915d"><path d="M 3 135 L 392 135 L 392 277.503906 L 3 277.503906 Z M 3 135 " clip-rule="nonzero"/></clipPath></defs><g clip-path="url(#53bdbb728c)"><path fill="#d33333" d="M 116.628906 95.847656 C 121.769531 95.847656 125.996094 92.023438 126.683594 87.054688 L 144.046875 87.054688 L 151.46875 97.789062 C 151.757812 98.191406 152.15625 98.363281 152.613281 98.363281 L 194.707031 98.363281 C 195.449219 98.363281 196.078125 97.734375 196.078125 96.992188 C 196.078125 96.25 195.449219 95.621094 194.707031 95.621094 L 153.296875 95.621094 L 145.875 84.882812 C 145.585938 84.484375 145.1875 84.3125 144.730469 84.3125 L 126.625 84.3125 C 125.941406 79.34375 121.714844 75.515625 116.574219 75.515625 C 110.976562 75.515625 106.40625 80.085938 106.40625 85.683594 C 106.40625 91.28125 111.03125 95.847656 116.628906 95.847656 Z M 116.628906 78.3125 C 120.683594 78.3125 123.996094 81.628906 123.996094 85.683594 C 123.996094 89.738281 120.683594 93.050781 116.628906 93.050781 C 112.574219 93.050781 109.261719 89.738281 109.261719 85.683594 C 109.261719 81.628906 112.515625 78.3125 116.628906 78.3125 Z M 116.628906 78.3125 " fill-opacity="1" fill-rule="nonzero"/></g><g clip-path="url(#adc683c3f2)"><path fill="#d33333" d="M 194.707031 111.5 L 150.898438 111.5 C 150.214844 106.53125 145.988281 102.703125 140.847656 102.703125 C 135.25 102.703125 130.679688 107.273438 130.679688 112.871094 C 130.679688 118.46875 135.25 123.035156 140.847656 123.035156 C 145.988281 123.035156 150.214844 119.210938 150.898438 114.242188 L 194.707031 114.242188 C 195.449219 114.242188 196.078125 113.613281 196.078125 112.871094 C 196.078125 112.128906 195.449219 111.5 194.707031 111.5 Z M 140.847656 120.292969 C 136.792969 120.292969 133.480469 116.980469 133.480469 112.925781 C 133.480469 108.871094 136.792969 105.5 140.847656 105.5 C 144.902344 105.5 148.214844 108.8125 148.214844 112.871094 C 148.214844 116.980469 144.902344 120.292969 140.847656 120.292969 Z M 140.847656 120.292969 " fill-opacity="1" fill-rule="nonzero"/></g><g clip-path="url(#6f075d3f24)"><path fill="#d33333" d="M 194.707031 129.089844 L 156.496094 129.089844 C 156.039062 129.089844 155.582031 129.320312 155.296875 129.71875 L 149.929688 138.285156 L 126.394531 138.285156 L 120.570312 127.433594 C 120.34375 126.976562 119.886719 126.691406 119.371094 126.691406 L 107.035156 126.691406 C 106.347656 121.722656 102.121094 117.894531 96.980469 117.894531 C 91.382812 117.894531 86.816406 122.464844 86.816406 128.0625 C 86.816406 133.660156 91.382812 138.230469 96.980469 138.230469 C 102.121094 138.230469 106.347656 134.402344 107.035156 129.433594 L 118.515625 129.433594 L 124.339844 140.285156 C 124.570312 140.742188 125.027344 141.027344 125.539062 141.027344 L 150.671875 141.027344 C 151.128906 141.027344 151.585938 140.800781 151.871094 140.398438 L 157.238281 131.832031 L 194.652344 131.832031 C 195.394531 131.832031 196.019531 131.203125 196.019531 130.460938 C 196.078125 129.71875 195.449219 129.089844 194.707031 129.089844 Z M 96.980469 135.542969 C 92.925781 135.542969 89.613281 132.230469 89.613281 128.175781 C 89.613281 124.121094 92.925781 120.808594 96.980469 120.808594 C 101.035156 120.808594 104.347656 124.121094 104.347656 128.175781 C 104.40625 132.230469 101.09375 135.542969 96.980469 135.542969 Z M 96.980469 135.542969 " fill-opacity="1" fill-rule="nonzero"/></g><g clip-path="url(#fd45350b7d)"><path fill="#d33333" d="M 194.707031 145.253906 L 172.660156 145.253906 C 172.148438 145.253906 171.691406 145.539062 171.460938 145.941406 L 164.949219 157.019531 L 131.707031 157.019531 C 131.023438 152.050781 126.796875 148.226562 121.65625 148.226562 C 116.058594 148.226562 111.488281 152.792969 111.488281 158.390625 C 111.488281 163.988281 116.058594 168.558594 121.65625 168.558594 C 126.796875 168.558594 131.023438 164.730469 131.707031 159.761719 L 165.75 159.761719 C 166.261719 159.761719 166.71875 159.476562 166.949219 159.078125 L 173.460938 147.996094 L 194.707031 147.996094 C 195.449219 147.996094 196.078125 147.367188 196.078125 146.625 C 196.078125 145.882812 195.449219 145.253906 194.707031 145.253906 Z M 121.65625 165.816406 C 117.601562 165.816406 114.289062 162.503906 114.289062 158.449219 C 114.289062 154.394531 117.601562 151.082031 121.65625 151.082031 C 125.710938 151.082031 129.023438 154.394531 129.023438 158.449219 C 129.082031 162.503906 125.769531 165.816406 121.65625 165.816406 Z M 121.65625 165.816406 " fill-opacity="1" fill-rule="nonzero"/></g><g clip-path="url(#9411def524)"><path fill="#000000" d="M 299.628906 5.957031 C 279.28125 -11.210938 210.867188 27.5 231.011719 63.601562 C 233 67.1875 232.613281 71.582031 229.816406 74.375 C 225.019531 79.558594 219.835938 84.742188 214.046875 90.53125 L 204.082031 80.550781 C 201.492188 77.960938 200.683594 73.96875 202.082031 70.773438 C 207.464844 58.015625 204.671875 42.445312 193.902344 32.078125 L 161.988281 1.160156 C 160.390625 -0.234375 158 -0.4375 156.402344 0.960938 C 154.617188 2.558594 154.417969 5.351562 156.015625 7.152344 L 186.125 38.457031 C 187.722656 40.257812 187.722656 43.050781 185.738281 44.652344 L 185.335938 45.054688 C 183.535156 46.453125 181.144531 46.25 179.542969 44.652344 L 149.621094 11.933594 C 148.039062 10.335938 145.628906 10.132812 143.847656 11.527344 L 143.441406 11.730469 C 141.640625 13.328125 141.441406 15.921875 143.039062 17.722656 L 171.566406 50.828125 C 173.164062 52.628906 172.964844 55.222656 171.164062 56.820312 L 170.976562 57.023438 C 169.175781 58.605469 166.585938 58.21875 164.984375 56.417969 L 137.265625 22.503906 C 135.867188 20.71875 133.074219 20.515625 131.273438 21.914062 L 130.871094 22.117188 C 129.085938 23.511719 128.882812 26.105469 130.28125 27.886719 L 157.414062 62.996094 C 158.808594 64.796875 158.40625 67.390625 156.804688 68.785156 L 156.402344 69.191406 C 154.617188 70.773438 151.824219 70.386719 150.226562 68.382812 L 124.695312 33.476562 C 123.296875 31.488281 120.503906 31.085938 118.515625 32.683594 C 116.917969 34.082031 116.515625 36.472656 117.707031 38.273438 L 143.242188 75.957031 C 151.421875 88.125 165.980469 93.125 179.34375 89.925781 C 182.945312 89.136719 186.730469 90.53125 188.917969 93.511719 C 191.914062 97.703125 194.910156 101.890625 198.09375 106.488281 C 189.726562 115.054688 180.539062 124.832031 170.976562 136.191406 C 144.4375 167.917969 149.433594 175.898438 153.808594 179.480469 C 158.203125 183.066406 166.988281 186.871094 193.515625 155.144531 C 201.289062 145.769531 208.074219 137 214.046875 128.820312 C 220.039062 137 226.621094 145.566406 234.394531 154.757812 C 260.9375 186.667969 269.707031 183.082031 274.097656 179.28125 C 278.476562 175.695312 283.660156 167.71875 256.929688 136.007812 C 247.355469 124.628906 238.382812 114.851562 230.003906 106.488281 C 235 99.300781 239.578125 92.71875 244.175781 86.726562 C 246.5625 83.546875 250.753906 82.351562 254.742188 83.75 C 293.640625 96.910156 319.777344 23.109375 299.628906 5.957031 " fill-opacity="1" fill-rule="nonzero"/></g><g clip-path="url(#d72176915d)"><path stroke-linecap="butt" transform="matrix(0.41831, 0, 0, 0.41831, 26.056772, 195.963395)" fill="none" stroke-linejoin="miter" d="M 190.81135 41.987912 C 198.562038 41.987912 204.725235 44.331795 209.310281 49.028898 C 213.895326 53.716664 216.18318 60.234712 216.18318 68.583043 L 216.18318 105.001938 L 197.198664 105.001938 L 197.198664 71.151042 C 197.198664 67.126287 196.134111 64.016674 194.005007 61.822202 C 191.875902 59.618392 188.953052 58.516487 185.227119 58.516487 C 181.510524 58.516487 178.597013 59.618392 176.467908 61.822202 C 174.338804 64.016674 173.274251 67.126287 173.274251 71.151042 L 173.274251 105.001938 L 154.289735 105.001938 L 154.289735 71.151042 C 154.289735 67.126287 153.225183 64.016674 151.096078 61.822202 C 148.966974 59.618392 146.053462 58.516487 142.346205 58.516487 C 138.610934 58.516487 135.688084 59.618392 133.55898 61.822202 C 131.429875 64.016674 130.365323 67.126287 130.365323 71.151042 L 130.365323 105.001938 L 111.268748 105.001938 L 111.268748 42.641584 L 130.365323 42.641584 L 130.365323 50.466978 C 132.317002 47.870964 134.847648 45.807227 137.975938 44.275766 C 141.104228 42.753643 144.643397 41.987912 148.584108 41.987912 C 153.281212 41.987912 157.474054 42.996435 161.162634 45.013482 C 164.851215 47.011852 167.736712 49.878672 169.809787 53.604605 C 171.976245 50.168156 174.917771 47.376041 178.653042 45.237598 C 182.378975 43.071141 186.431744 41.987912 190.81135 41.987912 Z M 282.988506 91.144082 L 253.722656 91.144082 L 249.025552 105.001938 L 229.032513 105.001938 L 257.401898 26.579918 L 279.524042 26.579918 L 307.893427 105.001938 L 287.68561 105.001938 Z M 278.076624 76.38976 L 268.346243 47.693539 L 258.737258 76.38976 Z M 340.175509 26.579918 L 340.175509 105.001938 L 321.078935 105.001938 L 321.078935 26.579918 Z M 447.433823 26.579918 L 447.433823 105.001938 L 428.337249 105.001938 L 428.337249 57.974873 L 410.80015 105.001938 L 395.392156 105.001938 L 377.714985 57.8348 L 377.714985 105.001938 L 358.618411 105.001938 L 358.618411 26.579918 L 381.179449 26.579918 L 403.189535 80.862747 L 424.984843 26.579918 Z M 524.511145 72.813238 C 524.511145 74.615506 524.408425 76.473804 524.184309 78.406807 L 480.948544 78.406807 C 481.238028 82.282151 482.489344 85.242353 484.683816 87.296752 C 486.887626 89.332475 489.586359 90.350336 492.789354 90.350336 C 497.551825 90.350336 500.876216 88.342628 502.743852 84.327212 L 523.063728 84.327212 C 522.02719 88.43601 520.150216 92.12459 517.423468 95.402291 C 514.715396 98.670653 511.306961 101.24799 507.188825 103.115626 C 503.098703 104.973923 498.522996 105.898403 493.471041 105.898403 C 487.363873 105.898403 481.919715 104.600396 477.157244 101.995045 C 472.394773 99.380355 468.66884 95.654422 465.979445 90.817245 C 463.299388 85.980069 461.964028 80.311795 461.964028 73.821761 C 461.964028 67.350404 463.280711 61.691468 465.923416 56.854291 C 468.575458 51.998439 472.282715 48.272506 477.054524 45.667154 C 481.816995 43.071141 487.289167 41.773134 493.471041 41.773134 C 499.512842 41.773134 504.872957 43.033788 509.57006 45.564434 C 514.257826 48.085742 517.918392 51.699617 520.561096 56.387383 C 523.194462 61.084486 524.511145 66.556659 524.511145 72.813238 Z M 504.985015 67.789298 C 504.985015 64.520936 503.864433 61.915584 501.623271 59.991919 C 499.391446 58.049578 496.599331 57.06907 493.256263 57.06907 C 490.034592 57.06907 487.32652 58.012226 485.12271 59.879861 C 482.946914 61.738159 481.58354 64.371525 481.060602 67.789298 Z M 535.362108 73.709703 C 535.362108 67.313051 536.576071 61.691468 538.99466 56.854291 C 541.413248 51.998439 544.700286 48.272506 548.865114 45.667154 C 553.048618 43.071141 557.708369 41.773134 562.835028 41.773134 C 567.23331 41.773134 571.089978 42.660261 574.395693 44.443853 C 577.729423 46.227445 580.278745 48.571327 582.062337 51.484839 L 582.062337 42.641584 L 601.158911 42.641584 L 601.158911 105.001938 L 582.062337 105.001938 L 582.062337 96.158683 C 580.194702 99.072195 577.598688 101.425416 574.292973 103.227684 C 570.97792 105.011276 567.13059 105.898403 562.72297 105.898403 C 557.671016 105.898403 553.048618 104.58172 548.865114 101.948354 C 544.700286 99.286973 541.413248 95.523687 538.99466 90.649158 C 536.576071 85.755953 535.362108 80.115693 535.362108 73.709703 Z M 582.062337 73.821761 C 582.062337 69.05929 580.736316 65.305343 578.084273 62.559918 C 575.441569 59.795818 572.229236 58.413767 568.428597 58.413767 C 564.627959 58.413767 561.396949 59.777141 558.744906 62.503889 C 556.102202 65.211961 554.785519 68.947232 554.785519 73.709703 C 554.785519 78.481512 556.102202 82.263474 558.744906 85.055589 C 561.396949 87.838367 564.627959 89.229755 568.428597 89.229755 C 572.229236 89.229755 575.441569 87.857043 578.084273 85.111619 C 580.736316 82.347518 582.062337 78.584232 582.062337 73.821761 Z M 638.689049 22.321709 L 638.689049 105.001938 L 619.592475 105.001938 L 619.592475 22.321709 Z M 682.503781 105.898403 C 677.059623 105.898403 672.213109 104.973923 667.964238 103.115626 C 663.724705 101.24799 660.372299 98.68933 657.897682 95.448982 C 655.441741 92.217972 654.069029 88.576083 653.779545 84.54199 L 672.652003 84.54199 C 672.894796 86.708447 673.903319 88.464024 675.677573 89.808722 C 677.461165 91.15342 679.664975 91.825769 682.279665 91.825769 C 684.6609 91.825769 686.500521 91.35886 687.78919 90.43438 C 689.105873 89.491224 689.759546 88.267923 689.759546 86.773814 C 689.759546 84.99956 688.81639 83.673539 686.948754 82.823765 C 685.090456 81.964652 682.083563 81.012158 677.918736 79.956944 C 673.445748 78.920406 669.719815 77.82784 666.731598 76.688582 C 663.752719 75.52131 661.175382 73.691027 659.018263 71.207071 C 656.870482 68.713778 655.796592 65.342695 655.796592 61.084486 C 655.796592 57.517302 656.7771 54.267616 658.738118 51.316752 C 660.72715 48.375226 663.631323 46.040681 667.469314 44.331795 C 671.307306 42.622908 675.873675 41.773134 681.168422 41.773134 C 688.984477 41.773134 695.138336 43.706137 699.63 47.581481 C 704.14034 51.456825 706.736353 56.592822 707.408702 62.989475 L 689.759546 62.989475 C 689.470062 60.832355 688.50823 59.114131 686.892725 57.862815 C 685.295896 56.592822 683.194806 55.957826 680.589455 55.957826 C 678.35763 55.957826 676.639405 56.378044 675.43478 57.237157 C 674.25817 58.086931 673.660526 59.263541 673.660526 60.75765 C 673.660526 62.541242 674.613021 63.88594 676.499333 64.791743 C 678.413659 65.688208 681.373862 66.575335 685.389278 67.462462 C 690.011676 68.64841 693.774962 69.825021 696.688474 70.982955 C 699.592647 72.131551 702.14197 73.989848 704.327103 76.576524 C 706.521575 79.144523 707.660833 82.580972 707.735538 86.885872 C 707.735538 90.546438 706.708339 93.805462 704.65394 96.681621 C 702.618217 99.55778 699.676691 101.808281 695.8387 103.442462 C 692.000708 105.085982 687.555736 105.898403 682.503781 105.898403 Z M 682.503781 105.898403 " stroke="#820000" stroke-width="29.329124" stroke-opacity="1" stroke-miterlimit="4"/></g><g fill="#ffffff" fill-opacity="1"><g transform="translate(69.704769, 239.885908)"><g><path d="M 36.171875 -26.359375 C 39.410156 -26.359375 41.988281 -25.375 43.90625 -23.40625 C 45.820312 -21.445312 46.78125 -18.722656 46.78125 -15.234375 L 46.78125 0 L 38.84375 0 L 38.84375 -14.15625 C 38.84375 -15.84375 38.394531 -17.144531 37.5 -18.0625 C 36.613281 -18.976562 35.390625 -19.4375 33.828125 -19.4375 C 32.273438 -19.4375 31.050781 -18.976562 30.15625 -18.0625 C 29.269531 -17.144531 28.828125 -15.84375 28.828125 -14.15625 L 28.828125 0 L 20.890625 0 L 20.890625 -14.15625 C 20.890625 -15.84375 20.441406 -17.144531 19.546875 -18.0625 C 18.660156 -18.976562 17.441406 -19.4375 15.890625 -19.4375 C 14.328125 -19.4375 13.101562 -18.976562 12.21875 -18.0625 C 11.332031 -17.144531 10.890625 -15.84375 10.890625 -14.15625 L 10.890625 0 L 2.890625 0 L 2.890625 -26.078125 L 10.890625 -26.078125 L 10.890625 -22.8125 C 11.703125 -23.894531 12.757812 -24.753906 14.0625 -25.390625 C 15.375 -26.035156 16.851562 -26.359375 18.5 -26.359375 C 20.46875 -26.359375 22.222656 -25.9375 23.765625 -25.09375 C 25.304688 -24.25 26.515625 -23.050781 27.390625 -21.5 C 28.285156 -22.925781 29.515625 -24.09375 31.078125 -25 C 32.640625 -25.90625 34.335938 -26.359375 36.171875 -26.359375 Z M 36.171875 -26.359375 "/></g></g></g><g fill="#ffffff" fill-opacity="1"><g transform="translate(121.111256, 239.885908)"><g><path d="M 23.328125 -5.796875 L 11.078125 -5.796875 L 9.109375 0 L 0.75 0 L 12.625 -32.8125 L 21.875 -32.8125 L 33.75 0 L 25.28125 0 Z M 21.265625 -11.96875 L 17.203125 -23.96875 L 13.171875 -11.96875 Z M 21.265625 -11.96875 "/></g></g></g><g fill="#ffffff" fill-opacity="1"><g transform="translate(157.469721, 239.885908)"><g><path d="M 10.890625 -32.8125 L 10.890625 0 L 2.890625 0 L 2.890625 -32.8125 Z M 10.890625 -32.8125 "/></g></g></g><g fill="#ffffff" fill-opacity="1"><g transform="translate(173.172201, 239.885908)"><g><path d="M 40.046875 -32.8125 L 40.046875 0 L 32.0625 0 L 32.0625 -19.671875 L 24.71875 0 L 18.265625 0 L 10.890625 -19.71875 L 10.890625 0 L 2.890625 0 L 2.890625 -32.8125 L 12.34375 -32.8125 L 21.546875 -10.09375 L 30.65625 -32.8125 Z M 40.046875 -32.8125 "/></g></g></g><g fill="#ffffff" fill-opacity="1"><g transform="translate(217.989334, 239.885908)"><g><path d="M 27.484375 -13.453125 C 27.484375 -12.710938 27.4375 -11.9375 27.34375 -11.125 L 9.25 -11.125 C 9.375 -9.5 9.894531 -8.257812 10.8125 -7.40625 C 11.738281 -6.550781 12.867188 -6.125 14.203125 -6.125 C 16.203125 -6.125 17.585938 -6.960938 18.359375 -8.640625 L 26.875 -8.640625 C 26.4375 -6.929688 25.648438 -5.390625 24.515625 -4.015625 C 23.378906 -2.648438 21.953125 -1.578125 20.234375 -0.796875 C 18.523438 -0.015625 16.609375 0.375 14.484375 0.375 C 11.929688 0.375 9.65625 -0.164062 7.65625 -1.25 C 5.664062 -2.34375 4.109375 -3.898438 2.984375 -5.921875 C 1.867188 -7.953125 1.3125 -10.320312 1.3125 -13.03125 C 1.3125 -15.75 1.863281 -18.117188 2.96875 -20.140625 C 4.070312 -22.171875 5.617188 -23.726562 7.609375 -24.8125 C 9.609375 -25.90625 11.898438 -26.453125 14.484375 -26.453125 C 17.003906 -26.453125 19.242188 -25.921875 21.203125 -24.859375 C 23.171875 -23.804688 24.707031 -22.296875 25.8125 -20.328125 C 26.925781 -18.367188 27.484375 -16.078125 27.484375 -13.453125 Z M 19.296875 -15.5625 C 19.296875 -16.9375 18.828125 -18.023438 17.890625 -18.828125 C 16.960938 -19.640625 15.796875 -20.046875 14.390625 -20.046875 C 13.054688 -20.046875 11.925781 -19.65625 11 -18.875 C 10.082031 -18.101562 9.515625 -17 9.296875 -15.5625 Z M 19.296875 -15.5625 "/></g></g></g><g fill="#ffffff" fill-opacity="1"><g transform="translate(248.693107, 239.885908)"><g><path d="M 1.3125 -13.078125 C 1.3125 -15.765625 1.816406 -18.117188 2.828125 -20.140625 C 3.835938 -22.171875 5.210938 -23.726562 6.953125 -24.8125 C 8.703125 -25.90625 10.65625 -26.453125 12.8125 -26.453125 C 14.644531 -26.453125 16.253906 -26.078125 17.640625 -25.328125 C 19.023438 -24.578125 20.09375 -23.597656 20.84375 -22.390625 L 20.84375 -26.078125 L 28.828125 -26.078125 L 28.828125 0 L 20.84375 0 L 20.84375 -3.6875 C 20.0625 -2.476562 18.976562 -1.5 17.59375 -0.75 C 16.207031 0 14.597656 0.375 12.765625 0.375 C 10.640625 0.375 8.703125 -0.175781 6.953125 -1.28125 C 5.210938 -2.382812 3.835938 -3.957031 2.828125 -6 C 1.816406 -8.039062 1.3125 -10.398438 1.3125 -13.078125 Z M 20.84375 -13.03125 C 20.84375 -15.03125 20.289062 -16.601562 19.1875 -17.75 C 18.082031 -18.90625 16.734375 -19.484375 15.140625 -19.484375 C 13.554688 -19.484375 12.207031 -18.914062 11.09375 -17.78125 C 9.988281 -16.644531 9.4375 -15.078125 9.4375 -13.078125 C 9.4375 -11.085938 9.988281 -9.507812 11.09375 -8.34375 C 12.207031 -7.175781 13.554688 -6.59375 15.140625 -6.59375 C 16.734375 -6.59375 18.082031 -7.164062 19.1875 -8.3125 C 20.289062 -9.46875 20.84375 -11.039062 20.84375 -13.03125 Z M 20.84375 -13.03125 "/></g></g></g><g fill="#ffffff" fill-opacity="1"><g transform="translate(282.341055, 239.885908)"><g><path d="M 10.890625 -34.578125 L 10.890625 0 L 2.890625 0 L 2.890625 -34.578125 Z M 10.890625 -34.578125 "/></g></g></g><g fill="#ffffff" fill-opacity="1"><g transform="translate(298.043522, 239.885908)"><g><path d="M 13.5 0.375 C 11.226562 0.375 9.203125 -0.015625 7.421875 -0.796875 C 5.648438 -1.578125 4.25 -2.644531 3.21875 -4 C 2.195312 -5.351562 1.625 -6.867188 1.5 -8.546875 L 9.390625 -8.546875 C 9.484375 -7.648438 9.90625 -6.921875 10.65625 -6.359375 C 11.40625 -5.796875 12.320312 -5.515625 13.40625 -5.515625 C 14.40625 -5.515625 15.175781 -5.707031 15.71875 -6.09375 C 16.269531 -6.488281 16.546875 -7 16.546875 -7.625 C 16.546875 -8.363281 16.15625 -8.910156 15.375 -9.265625 C 14.59375 -9.628906 13.332031 -10.03125 11.59375 -10.46875 C 9.71875 -10.90625 8.15625 -11.363281 6.90625 -11.84375 C 5.664062 -12.332031 4.59375 -13.097656 3.6875 -14.140625 C 2.789062 -15.179688 2.34375 -16.585938 2.34375 -18.359375 C 2.34375 -19.859375 2.753906 -21.222656 3.578125 -22.453125 C 4.398438 -23.679688 5.613281 -24.65625 7.21875 -25.375 C 8.820312 -26.09375 10.734375 -26.453125 12.953125 -26.453125 C 16.222656 -26.453125 18.796875 -25.640625 20.671875 -24.015625 C 22.554688 -22.398438 23.640625 -20.253906 23.921875 -17.578125 L 16.546875 -17.578125 C 16.421875 -18.472656 16.019531 -19.1875 15.34375 -19.71875 C 14.675781 -20.25 13.800781 -20.515625 12.71875 -20.515625 C 11.78125 -20.515625 11.0625 -20.332031 10.5625 -19.96875 C 10.0625 -19.613281 9.8125 -19.125 9.8125 -18.5 C 9.8125 -17.757812 10.207031 -17.203125 11 -16.828125 C 11.800781 -16.453125 13.039062 -16.078125 14.71875 -15.703125 C 16.65625 -15.203125 18.226562 -14.707031 19.4375 -14.21875 C 20.65625 -13.738281 21.722656 -12.960938 22.640625 -11.890625 C 23.554688 -10.816406 24.03125 -9.378906 24.0625 -7.578125 C 24.0625 -6.046875 23.632812 -4.679688 22.78125 -3.484375 C 21.925781 -2.285156 20.695312 -1.34375 19.09375 -0.65625 C 17.488281 0.03125 15.625 0.375 13.5 0.375 Z M 13.5 0.375 "/></g></g></g></svg>